<?xml version="1.0" encoding="UTF-8" standalone="no"?>
<svg
   version="1.1"
   width="512"
   height="512"
   x="0"
   y="0"
   viewBox="0 0 24 24"
   style="enable-background:new 0 0 512 512"
   xml:space="preserve"
   class=""
   id="svg6"
   sodipodi:docname="allbnb1.svg"
   inkscape:version="1.1 (c68e22c387, 2021-05-23)"
   xmlns:inkscape="http://www.inkscape.org/namespaces/inkscape"
   xmlns:sodipodi="http://sodipodi.sourceforge.net/DTD/sodipodi-0.dtd"
   xmlns="http://www.w3.org/2000/svg"
   xmlns:svg="http://www.w3.org/2000/svg"><defs
     id="defs10"><rect
       x="-1599.0154"
       y="-960.98461"
       width="1350.8923"
       height="515.93846"
       id="rect3666" /><clipPath
       clipPathUnits="userSpaceOnUse"
       id="clipPath17623"><rect
         style="fill:none;fill-opacity:1;stroke-width:0.046875"
         id="rect17625"
         width="36.923073"
         height="36.369225"
         x="-4.4307694"
         y="-5.3538465" /></clipPath></defs><sodipodi:namedview
     id="namedview8"
     pagecolor="#ffffff"
     bordercolor="#666666"
     borderopacity="1.0"
     inkscape:pageshadow="2"
     inkscape:pageopacity="0.0"
     inkscape:pagecheckerboard="0"
     showgrid="false"
     inkscape:zoom="0.71815532"
     inkscape:cx="52.913344"
     inkscape:cy="261.78181"
     inkscape:window-width="1271"
     inkscape:window-height="728"
     inkscape:window-x="1705"
     inkscape:window-y="250"
     inkscape:window-maximized="0"
     inkscape:current-layer="svg6" /><g
     id="g4"
     transform="matrix(0.73096716,0,0,0.59340754,0.36672491,4.7999995)"><path
       d="M 4.4096612,10.586517 C 3.8721323,11.144068 3.1761319,11.700512 2.368246,11.790976 l -7.964e-4,-0.0033 C 1.5727033,12.096337 0.03775978,11.330534 0.03775978,9.9410858 c 0,-0.9194064 1.27294792,-2.955393 2.62035362,-5.5825323 0.3551672,-0.6827238 0.7226777,-1.3887098 1.7475661,-1.3887098 1.0324536,0 1.3840372,0.6746006 1.8164493,1.506128 C 8.7811643,9.2070377 8.7811643,9.46809 8.7811643,9.9410858 8.7815625,11.567217 6.609946,12.869155 4.4096612,10.586517 Z m 3.774647,-0.6454312 c 0,-0.7244479 -2.5399233,-5.3041257 -2.5610263,-5.3421574 C 5.2557714,3.8925732 4.9845057,5.7063151 4.3633612,5.7063151 3.6287384,5.7063151 3.488695,4.0672235 3.1335278,4.7193005 0.63501407,9.3381177 0.63501407,9.5910468 0.63501407,9.9410858 c 0,1.1055032 1.46645833,2.2357452 3.37886663,0.2244972 C 3.2199306,9.2144225 2.816983,8.3972954 2.816983,7.7367259 c 0,-1.0109778 0.8011171,-1.5397287 1.5926782,-1.5397287 0.791561,0 1.5926781,0.5287509 1.5926781,1.5397287 0,0.6605695 -0.4025494,1.4776966 -1.1968976,2.4288571 1.8323761,1.927061 3.3788665,0.943777 3.3788665,-0.2244972 z M 4.4096612,6.7508564 c -0.495323,0 -0.9954239,0.3049919 -0.9954239,0.9858695 0,0.5077044 0.3436203,1.1967053 0.9954239,1.9968473 0.6518035,-0.800142 0.9954238,-1.4891429 0.9954238,-1.9968473 0,-0.6808776 -0.5001009,-0.9858695 -0.9954238,-0.9858695 z"
       fill="#15ebb9"
       data-original="#fe5b5f"
       id="path2"
       sodipodi:nodetypes="cccscscccscscscssscssscss"
       style="stroke-width:0.383432" /></g><text
     xml:space="preserve"
     transform="matrix(0.02563449,0,0,0.0183559,48.154679,24.870741)"
     id="text3664"
     style="font-style:normal;font-variant:normal;font-weight:normal;font-stretch:normal;font-size:192px;line-height:1.25;font-family:'Snap ITC';-inkscape-font-specification:'Snap ITC';white-space:pre;shape-inside:url(#rect3666);fill:#15ebb9;fill-opacity:1;stroke:none"><tspan
       x="-1599.0156"
       y="-791.10938"
       id="tspan18369">allbnb</tspan></text></svg>
