<?xml version="1.0" encoding="UTF-8" standalone="no"?>
<svg
   version="1.1"
   width="512"
   height="512"
   x="0"
   y="0"
   viewBox="0 0 24 24"
   style="enable-background:new 0 0 512 512"
   xml:space="preserve"
   class=""
   id="svg6"
   sodipodi:docname="allbnbhome.svg"
   inkscape:version="1.1 (c68e22c387, 2021-05-23)"
   xmlns:inkscape="http://www.inkscape.org/namespaces/inkscape"
   xmlns:sodipodi="http://sodipodi.sourceforge.net/DTD/sodipodi-0.dtd"
   xmlns="http://www.w3.org/2000/svg"
   xmlns:svg="http://www.w3.org/2000/svg"><defs
     id="defs10"><linearGradient
       id="linearGradient7665"
       inkscape:swatch="solid"><stop
         style="stop-color:#ffffff;stop-opacity:1;"
         offset="0"
         id="stop7663" /></linearGradient><rect
       x="-1599.0154"
       y="-960.98461"
       width="1350.8923"
       height="515.93846"
       id="rect3666" /><clipPath
       clipPathUnits="userSpaceOnUse"
       id="clipPath17623"><rect
         style="fill:none;fill-opacity:1;stroke-width:0.046875"
         id="rect17625"
         width="36.923073"
         height="36.369225"
         x="-4.4307694"
         y="-5.3538465" /></clipPath></defs><sodipodi:namedview
     id="namedview8"
     pagecolor="#ffffff"
     bordercolor="#666666"
     borderopacity="1.0"
     inkscape:pageshadow="2"
     inkscape:pageopacity="0.0"
     inkscape:pagecheckerboard="0"
     showgrid="false"
     inkscape:zoom="0.71815532"
     inkscape:cx="435.83887"
     inkscape:cy="256.21198"
     inkscape:window-width="1271"
     inkscape:window-height="728"
     inkscape:window-x="2085"
     inkscape:window-y="206"
     inkscape:window-maximized="0"
     inkscape:current-layer="svg6" /><g
     id="g4"
     transform="matrix(0.73096716,0,0,0.59340754,0.36672491,4.7999995)"><path
       d="M 4.4096612,10.586517 C 3.8721323,11.144068 3.1761319,11.700512 2.368246,11.790976 l -7.964e-4,-0.0033 C 1.5727033,12.096337 0.03775978,11.330534 0.03775978,9.9410858 c 0,-0.9194064 1.27294792,-2.955393 2.62035362,-5.5825323 0.3551672,-0.6827238 0.7226777,-1.3887098 1.7475661,-1.3887098 1.0324536,0 1.3840372,0.6746006 1.8164493,1.506128 C 8.7811643,9.2070377 8.7811643,9.46809 8.7811643,9.9410858 8.7815625,11.567217 6.609946,12.869155 4.4096612,10.586517 Z m 3.774647,-0.6454312 c 0,-0.7244479 -2.5399233,-5.3041257 -2.5610263,-5.3421574 C 5.2557714,3.8925732 4.9845057,5.7063151 4.3633612,5.7063151 3.6287384,5.7063151 3.488695,4.0672235 3.1335278,4.7193005 0.63501407,9.3381177 0.63501407,9.5910468 0.63501407,9.9410858 c 0,1.1055032 1.46645833,2.2357452 3.37886663,0.2244972 C 3.2199306,9.2144225 2.816983,8.3972954 2.816983,7.7367259 c 0,-1.0109778 0.8011171,-1.5397287 1.5926782,-1.5397287 0.791561,0 1.5926781,0.5287509 1.5926781,1.5397287 0,0.6605695 -0.4025494,1.4776966 -1.1968976,2.4288571 1.8323761,1.927061 3.3788665,0.943777 3.3788665,-0.2244972 z M 4.4096612,6.7508564 c -0.495323,0 -0.9954239,0.3049919 -0.9954239,0.9858695 0,0.5077044 0.3436203,1.1967053 0.9954239,1.9968473 0.6518035,-0.800142 0.9954238,-1.4891429 0.9954238,-1.9968473 0,-0.6808776 -0.5001009,-0.9858695 -0.9954238,-0.9858695 z"
       fill="#15ebb9"
       data-original="#fe5b5f"
       id="path2"
       sodipodi:nodetypes="cccscscccscscscssscssscss"
       style="stroke-width:0.383432;fill:#ffffff;fill-opacity:1" /></g><text
     xml:space="preserve"
     transform="matrix(0.02563449,0,0,0.0183559,48.154679,24.870741)"
     id="text3664"
     style="font-style:normal;font-variant:normal;font-weight:normal;font-stretch:normal;font-size:192px;line-height:1.25;font-family:'Snap ITC';-inkscape-font-specification:'Snap ITC';white-space:pre;shape-inside:url(#rect3666);fill:#ffffff;fill-opacity:1;stroke:none"><tspan
       x="-1599.0156"
       y="-791.10938"
       id="tspan11949">allbnb</tspan></text><path
     style="display:none;fill:#ffffff;fill-opacity:1;stroke:#000000;stroke-opacity:1"
     d="m 30.625027,250.73359 c -6.591038,-2.00491 -12.116035,-5.52622 -16.493761,-10.51218 -9.2675946,-10.5552 -6.2398603,-18.52305 24.612947,-64.7719 16.838646,-25.2414 19.761845,-28.90798 25.255717,-31.67838 11.910296,-6.00602 26.367294,-2.85873 34.321897,7.47186 6.350823,8.24776 34.380803,51.56453 40.067033,61.91848 6.96186,12.67674 6.98095,20.00078 0.072,27.64812 -6.94722,7.68974 -14.70515,10.36644 -27.63946,9.53636 -11.040993,-0.70857 -22.060663,-5.02323 -30.094495,-11.78325 l -4.141831,-3.48512 -4.375871,3.68205 c -11.544511,9.71407 -30.792875,15.25653 -41.584206,11.97396 z m 25.895167,-9.83756 c 4.525967,-2.29696 9.749306,-5.35932 11.607419,-6.80523 l 3.378391,-2.62894 -6.546098,-7.46744 c -15.530173,-17.716 -16.152347,-31.70817 -1.738547,-39.09842 11.539686,-5.91664 28.845101,-2.67012 34.40978,6.45532 5.343421,8.76259 2.315244,19.2552 -9.420837,32.6431 l -6.546097,7.46744 3.37839,2.57445 c 10.396621,7.92258 17.017285,10.32806 28.442605,10.334 13.42867,0.007 19.12509,-3.07697 21.72746,-11.76292 1.53182,-5.11276 1.28522,-5.9735 -5.28936,-18.46206 -7.08923,-13.46614 -33.043729,-53.99021 -35.625945,-55.62458 -2.378337,-1.50533 -4.240587,-0.0366 -9.196409,7.25298 -6.960267,10.23797 -10.278022,10.51909 -18.19435,1.54162 -3.484107,-3.95113 -7.133451,-7.18364 -8.109654,-7.18336 -2.08048,5.9e-4 -29.041791,40.63986 -36.770994,55.42557 -6.06225,11.5969 -6.279767,13.14126 -2.772083,19.68171 5.736767,10.69682 22.362634,13.22051 37.266329,5.65676 z M 82.610355,220.0913 c 9.806966,-10.85514 12.643173,-22.41487 6.906939,-28.1511 -3.607749,-3.60775 -11.634771,-5.35037 -18.01599,-3.91117 -14.0078,3.15927 -14.418462,17.14483 -0.941451,32.06227 2.72627,3.01765 5.437633,5.48664 6.025251,5.48664 0.587618,0 3.298982,-2.46899 6.025251,-5.48664 z"
     id="path39394"
     transform="scale(0.046875)" /><path
     style="display:none;fill:#ffffff;fill-opacity:1;stroke-width:1.39246"
     d="m 173.36083,220.63984 c -0.76585,-0.21347 -3.06721,-0.75602 -5.11413,-1.20568 -2.04692,-0.44965 -5.6499,-2.74578 -8.00662,-5.10251 -3.56484,-3.56483 -4.28408,-5.37851 -4.27975,-10.79201 0.0166,-20.82402 24.04334,-28.44064 40.88951,-12.96226 l 3.99463,3.67029 -0.97209,-3.48114 c -0.53464,-1.91463 -1.27789,-4.5777 -1.65166,-5.91794 -0.57961,-2.07834 0.30718,-2.43555 6.02843,-2.42834 l 6.708,0.008 0.39032,16.99303 c 0.22913,9.97529 0.99616,17.36747 1.85733,17.8997 2.22846,1.37726 -2.3157,2.68667 -9.32382,2.68667 -6.52673,0 -6.93978,-0.53204 -4.79417,-6.17541 1.51468,-3.98392 -0.0445,-4.74363 -2.83492,-1.38133 -3.72489,4.48823 -17.9326,9.57052 -22.89106,8.18846 z m 21.14431,-17.46302 3.9199,-1.51427 -6.09702,-5.44801 c -3.35336,-2.9964 -7.28931,-5.44801 -8.74655,-5.44801 -5.89783,0 -4.86346,10.06729 1.26429,12.3052 5.0756,1.85365 5.13144,1.85425 9.65938,0.10509 z"
     id="path39433"
     transform="scale(0.046875)" /><path
     style="fill:#ffffff;fill-opacity:1;stroke-width:1.39246"
     d="m 226.13015,219.23501 4.03334,-2.31461 -0.89398,-15.51373 c -0.4917,-8.53256 -0.89684,-18.13323 -0.90032,-21.33483 -0.005,-4.95276 -0.46835,-5.88747 -3.10358,-6.26605 -1.70349,-0.24473 4.26505,-1.94346 13.26343,-3.77497 8.99838,-1.8315 16.69824,-2.99245 17.1108,-2.57989 0.41256,0.41256 -1.16975,11.31092 -3.51624,24.21858 -5.00945,27.55613 -4.94323,26.56506 -1.82955,27.37875 1.34023,0.35024 -0.0696,0.71395 -3.13303,0.80823 -3.06341,0.0943 -9.95607,0.51381 -15.31702,0.93228 -9.62261,0.75112 -9.69564,0.73126 -5.71385,-1.55376 z"
     id="path39472"
     transform="scale(0.046875)" /><path
     style="fill:#ffffff;fill-opacity:1;stroke-width:1.39246"
     d="m 266.30729,219.71374 c 3.69648,-1.57896 3.82897,-2.00057 3.82091,-12.15842 -0.005,-5.7875 -0.41076,-15.69223 -0.90261,-22.0105 -0.80942,-10.39783 -1.17194,-11.50119 -3.82091,-11.6293 -1.60965,-0.0778 4.49534,-1.68942 13.56665,-3.58129 9.07131,-1.89186 16.8202,-3.11285 17.21975,-2.71329 0.39956,0.39955 -1.22632,11.3401 -3.61306,24.31233 -2.38675,12.97222 -4.33954,24.23663 -4.33954,25.03202 0,0.79539 1.09656,1.73273 2.4368,2.08297 1.34024,0.35024 -0.0696,0.71395 -3.13303,0.80823 -3.0634,0.0943 -9.95606,0.46876 -15.31702,0.83218 -8.34639,0.56579 -9.19688,0.42568 -5.91794,-0.97493 z"
     id="path39511"
     transform="scale(0.046875)" /><path
     style="fill:#ffffff;fill-opacity:1;stroke-width:1.39246"
     d="m 306.35103,218.88707 c 2.88228,-2.33393 2.92408,-2.93913 1.81786,-26.32378 -1.29131,-27.29735 -2.14702,-25.4129 11.55643,-25.4495 l 7.11885,-0.019 -4.57845,12.17156 c -2.51815,6.69436 -4.38523,12.36478 -4.14907,12.60093 0.23615,0.23616 2.7702,-1.15916 5.63122,-3.1007 9.76129,-6.62419 18.88177,-7.83589 27.95683,-3.71421 15.08768,6.85249 15.41382,20.48543 0.68189,28.50355 -7.01787,3.8196 -18.06776,5.92871 -36.72438,7.00963 -11.74872,0.68069 -12.13796,0.61052 -9.31118,-1.67846 z m 27.0314,-17.14244 c 4.65842,-3.66431 4.59943,-10.03905 -0.0991,-10.70873 -3.29359,-0.46943 -13.01836,7.1517 -13.01836,10.20227 0,4.15255 8.08534,4.46472 13.11745,0.50646 z"
     id="path39550"
     transform="scale(0.046875)" /><path
     style="fill:#ffffff;fill-opacity:0.98790324;stroke-width:1.39246"
     d="m 370.92709,218.73062 c 1.2334,-1.40409 2.29411,-7.63321 2.92341,-17.16797 0.97788,-14.81626 0.95533,-14.97727 -2.27906,-16.2731 -2.78891,-1.11735 -2.35021,-1.32393 2.99934,-1.41236 3.44633,-0.057 8.73008,-0.51052 11.74166,-1.00789 l 5.4756,-0.90429 -3.13362,4.40076 c -3.78842,5.32034 -3.3919,5.38027 5.56559,0.84116 14.01826,-7.10359 27.91294,-5.44207 32.75246,3.91653 2.76844,5.35357 1.67388,11.18976 -3.68269,19.6362 -4.89061,7.71169 -4.84116,7.4739 -1.72359,8.2886 1.34024,0.35024 -2.12814,0.70949 -7.70751,0.79833 -9.62027,0.15318 -10.06984,0.0224 -8.70285,-2.53184 5.75739,-10.75778 -7.07235,-19.29212 -14.32782,-9.53086 -2.35702,3.17106 -2.55594,4.36055 -1.21968,7.29332 1.84988,4.06005 1.01902,4.4108 -12.60556,5.32153 -7.21628,0.48237 -7.81931,0.31681 -6.07568,-1.66812 z"
     id="path39589"
     transform="scale(0.046875)" /><path
     style="fill:#ffffff;fill-opacity:1;stroke-width:1.39246"
     d="m 438.01799,218.99853 c 2.76569,-2.37729 2.8412,-3.37441 1.97965,-26.14331 -0.61728,-16.31332 -0.42897,-23.98977 0.60578,-24.69478 0.82583,-0.56266 5.17152,-1.03262 9.6571,-1.04434 7.22093,-0.0189 8.04196,0.25794 7.164,2.41547 -2.54951,6.26528 -7.60943,21.75077 -7.23082,22.12938 0.23335,0.23335 2.58177,-1.03244 5.21871,-2.81287 14.3826,-9.71092 33.08417,-7.09116 38.28805,5.36348 5.24177,12.54532 -8.07643,23.12195 -31.51802,25.03 -5.68168,0.46247 -14.08996,1.15307 -18.68506,1.53468 -8.12241,0.67454 -8.27478,0.62511 -5.47939,-1.77771 z m 28.98095,-18.39196 c 3.21061,-3.21061 2.13293,-9.84506 -1.5969,-9.83086 -3.08761,0.0117 -9.63224,4.31773 -12.25605,8.06375 -1.81732,2.59459 -1.77209,3.06238 0.42479,4.39272 3.2717,1.98122 10.17019,0.63236 13.42816,-2.62561 z"
     id="path39628"
     transform="scale(0.046875)" /></svg>
