<?xml version="1.0"?>
<svg xmlns="http://www.w3.org/2000/svg" xmlns:xlink="http://www.w3.org/1999/xlink" xmlns:svgjs="http://svgjs.com/svgjs" version="1.1" width="512" height="512" x="0" y="0" viewBox="0 0 512 512" style="enable-background:new 0 0 512 512" xml:space="preserve" class=""><g><linearGradient xmlns="http://www.w3.org/2000/svg" id="SVGID_1_" gradientUnits="userSpaceOnUse" x1="316" x2="316" y1="452" y2="122"><stop stop-opacity="1" stop-color="#12c07d" offset="0.3745173745173745"/><stop stop-opacity="1" stop-color="#ffffff" offset="1"/></linearGradient><linearGradient xmlns="http://www.w3.org/2000/svg" id="SVGID_2_" gradientUnits="userSpaceOnUse" x1="256" x2="256" y1="512" y2="0"><stop stop-opacity="1" stop-color="#00b59c" offset="0"/><stop stop-opacity="1" stop-color="#ffffff" offset="0"/></linearGradient><g xmlns="http://www.w3.org/2000/svg"><g><g><path d="m181 452h150v-270h-150zm195-330h-120c-8.291 0-15 6.709-15 15s6.709 15 15 15h120c24.814 0 45 20.186 45 45 0 8.291 6.709 15 15 15s15-6.709 15-15c0-41.352-33.633-75-75-75z" fill="url(#SVGID_1_)" data-original="url(#SVGID_1_)" style=""/></g></g><g><g><path d="m386.8 198.5c-21.9-29.101-47.101-50.4-74.1-63 31.2-21 48.3-63.501 48.3-120.5 0-8.401-6.599-15-15-15h-30c-24.6 0-46.199 11.701-60 30-13.801-18.299-35.4-30-60-30h-30c-8.401 0-15 6.599-15 15 0 56.999 17.1 99.5 48.3 120.5-26.999 12.6-52.2 33.898-74.099 62.999-53.401 71.401-77.401 173.101-57.302 241.801 12.602 42.299 53.401 71.7 99.601 71.7h177c46.199 0 86.999-29.401 99.6-71.7 20.1-68.7-3.9-170.4-57.3-241.8zm-145.8 103.5h30c24.901 0 45 20.1 45 45 0 24.899-20.099 45-45 45v15c0 8.399-6.599 15-15 15s-15-6.601-15-15v-15c-24.901 0-45-20.101-45-45 0-8.401 6.599-15 15-15s15 6.599 15 15c0 8.399 6.599 15 15 15h30c8.401 0 15-6.601 15-15 0-8.401-6.599-15-15-15h-30c-24.901 0-45-20.101-45-45 0-24.9 20.099-45 45-45v-15c0-8.401 6.599-15 15-15s15 6.599 15 15v15c24.901 0 45 20.1 45 45 0 8.399-6.599 15-15 15s-15-6.601-15-15c0-8.401-6.599-15-15-15h-30c-8.401 0-15 6.599-15 15 0 8.399 6.599 15 15 15z" fill="url(#SVGID_2_)" data-original="url(#SVGID_2_)" style=""/></g></g></g></g></svg>
